<svg xmlns="http://www.w3.org/2000/svg" xmlns:xlink="http://www.w3.org/1999/xlink" width="500" zoomAndPan="magnify" viewBox="0 0 375 374.999991" height="500" preserveAspectRatio="xMidYMid meet" version="1.0"><defs><g/><clipPath id="f85f1eaefd"><path d="M 10.933594 10.933594 L 364.066406 10.933594 L 364.066406 364.066406 L 10.933594 364.066406 Z M 10.933594 10.933594 " clip-rule="nonzero"/></clipPath><clipPath id="cd8f9fc9db"><path d="M 28.183594 10.933594 L 346.816406 10.933594 C 351.390625 10.933594 355.777344 12.753906 359.011719 15.988281 C 362.246094 19.222656 364.066406 23.609375 364.066406 28.183594 L 364.066406 346.816406 C 364.066406 351.390625 362.246094 355.777344 359.011719 359.011719 C 355.777344 362.246094 351.390625 364.066406 346.816406 364.066406 L 28.183594 364.066406 C 23.609375 364.066406 19.222656 362.246094 15.988281 359.011719 C 12.753906 355.777344 10.933594 351.390625 10.933594 346.816406 L 10.933594 28.183594 C 10.933594 23.609375 12.753906 19.222656 15.988281 15.988281 C 19.222656 12.753906 23.609375 10.933594 28.183594 10.933594 Z M 28.183594 10.933594 " clip-rule="nonzero"/></clipPath></defs><g clip-path="url(#f85f1eaefd)"><g clip-path="url(#cd8f9fc9db)"><path fill="#000000" d="M 10.933594 10.933594 L 364.066406 10.933594 L 364.066406 364.066406 L 10.933594 364.066406 Z M 10.933594 10.933594 " fill-opacity="1" fill-rule="nonzero"/></g></g><g fill="#ffffff" fill-opacity="1"><g transform="translate(65.54824, 284.663385)"><g><path d="M 142.828125 -219.4375 L 142.828125 -175.546875 L 65.96875 -175.546875 L 65.96875 -131.921875 L 136.984375 -131.921875 L 136.984375 -88.046875 L 65.96875 -88.046875 L 65.96875 0 L 15.953125 0 L 15.953125 -219.4375 Z M 142.828125 -219.4375 "/></g></g></g><g fill="#ffffff" fill-opacity="1"><g transform="translate(194.01615, 284.663385)"><g><path d="M 46.28125 -56.921875 C 54.789062 -56.921875 62.015625 -53.945312 67.953125 -48 C 73.898438 -42.0625 76.875 -34.835938 76.875 -26.328125 C 76.875 -17.992188 73.898438 -10.859375 67.953125 -4.921875 C 62.015625 1.015625 54.789062 3.984375 46.28125 3.984375 C 37.945312 3.984375 30.804688 1.015625 24.859375 -4.921875 C 18.921875 -10.859375 15.953125 -17.992188 15.953125 -26.328125 C 15.953125 -34.835938 18.921875 -42.0625 24.859375 -48 C 30.804688 -53.945312 37.945312 -56.921875 46.28125 -56.921875 Z M 46.28125 -56.921875 "/></g></g></g></svg>